<svg xmlns="http://www.w3.org/2000/svg" viewBox="0 0 64 64" role="img" aria-label="OpenSabre">
  <defs>
    <linearGradient id="os-bg" x1="10" y1="8" x2="54" y2="58" gradientUnits="userSpaceOnUse">
      <stop offset="0" stop-color="#1677ff"/>
      <stop offset="1" stop-color="#13c2c2"/>
    </linearGradient>
    <linearGradient id="os-cut" x1="17" y1="18" x2="47" y2="47" gradientUnits="userSpaceOnUse">
      <stop offset="0" stop-color="#ffffff"/>
      <stop offset="1" stop-color="#dff7ff"/>
    </linearGradient>
  </defs>
  <rect width="64" height="64" rx="16" fill="url(#os-bg)"/>
  <path d="M32 13 48 19v12c0 10.1-6.3 17.2-16 20-9.7-2.8-16-9.9-16-20V19l16-6Z" fill="#fff" opacity=".18"/>
  <path d="M25.8 20h18.7c1.3 0 2.1 1.4 1.4 2.5L32.8 44c-.4.6-1 .9-1.7.9H19.5c-1.3 0-2.1-1.4-1.4-2.5l4.4-7.1h8.1l-2.1 3.4h1.9L41 23.3H25.8c-4.6 0-8.1 3.4-8.1 7.6 0 2.4 1.1 4.3 3 5.5l-3.3 5.4c-4.1-2.1-6.6-5.9-6.6-10.8C10.8 24.8 16.5 20 25.8 20Z" fill="url(#os-cut)"/>
  <path d="M38.2 44H19.5c-1.3 0-2.1-1.4-1.4-2.5L31.2 20c.4-.6 1-.9 1.7-.9h11.6c1.3 0 2.1 1.4 1.4 2.5l-4.4 7.1h-8.1l2.1-3.4h-1.9L23 40.7h15.2c4.6 0 8.1-3.4 8.1-7.6 0-2.4-1.1-4.3-3-5.5l3.3-5.4c4.1 2.1 6.6 5.9 6.6 10.8C53.2 39.2 47.5 44 38.2 44Z" fill="#fff" opacity=".9"/>
</svg>
